<?xml version="1.0" standalone="no"?>
<!DOCTYPE svg PUBLIC "-//W3C//DTD SVG 20010904//EN"
 "http://www.w3.org/TR/2001/REC-SVG-20010904/DTD/svg10.dtd">
<svg version="1.0" xmlns="http://www.w3.org/2000/svg"
 width="260.000000pt" height="260.000000pt" viewBox="0 0 260.000000 260.000000"
 preserveAspectRatio="xMidYMid meet">
<metadata>
Created by potrace 1.11, written by Peter Selinger 2001-2013
</metadata>
<g transform="translate(0.000000,260.000000) scale(0.100000,-0.100000)"
fill="#000000" stroke="none">
<path d="M1135 2580 c-148 -23 -265 -79 -429 -202 -66 -50 -132 -100 -145
-112 -18 -16 -191 -349 -191 -368 0 -2 21 -15 47 -29 l48 -24 -63 -3 -63 -3 1
-102 c1 -56 -6 -177 -15 -269 -11 -111 -13 -173 -6 -185 5 -10 17 -48 26 -83
35 -140 69 -236 96 -265 l26 -30 -15 -101 -15 -101 58 -149 c70 -177 151 -310
222 -364 172 -129 179 -132 298 -147 186 -23 296 -32 389 -33 l89 0 131 64
c125 61 135 68 232 167 95 97 104 110 133 189 18 47 43 101 55 121 19 28 46
137 46 182 0 3 -24 22 -52 44 -82 60 -81 59 -73 25 5 -26 1 -35 -32 -67 -21
-20 -51 -43 -68 -51 -16 -7 -50 -25 -74 -39 l-44 -27 -141 141 c-78 78 -146
141 -151 141 -5 0 24 -34 65 -75 l74 -74 -27 -56 c-15 -30 -29 -55 -31 -55 -2
0 -16 50 -31 110 -15 61 -31 110 -36 110 -5 0 -7 -38 -6 -85 2 -65 7 -89 22
-105 18 -19 18 -20 -1 -21 -11 0 -5 -5 13 -10 18 -5 40 -21 50 -35 10 -14 28
-38 41 -54 l22 -28 -38 -22 c-30 -17 -47 -38 -73 -91 -35 -74 -48 -83 -110
-77 l-34 3 0 78 0 77 -48 -6 c-28 -4 -58 -2 -70 4 -12 6 -59 22 -104 37 -46
15 -83 29 -83 33 0 3 15 27 33 54 l32 47 69 1 69 0 -21 23 c-12 13 -22 29 -22
35 0 7 -7 12 -16 12 -26 0 -10 23 22 32 22 6 54 0 127 -23 54 -17 101 -29 103
-26 3 3 -15 48 -40 100 l-44 96 -62 3 -62 3 -15 43 c-13 39 -12 45 5 70 17 23
18 36 11 87 -4 33 -12 113 -18 179 -9 98 -8 123 4 146 14 27 13 28 -15 33 -18
4 -34 17 -43 33 -9 17 -17 23 -21 15 -15 -24 -37 -8 -66 50 -24 50 -27 60 -13
54 50 -20 41 -12 -22 20 -38 19 -83 36 -100 36 -22 1 -24 3 -8 6 12 2 24 10
27 18 3 8 0 12 -7 10 -7 -3 -70 39 -141 92 -70 54 -122 99 -115 101 33 9 185
66 191 71 4 4 1 33 -7 66 -16 69 -15 70 60 81 37 5 69 20 126 59 122 84 107
83 196 23 43 -28 87 -60 98 -70 20 -17 24 -16 140 33 66 28 124 55 130 60 5 5
18 9 30 9 22 0 214 -46 221 -53 3 -2 21 -67 42 -143 31 -119 37 -154 37 -246
l0 -106 33 -18 c17 -9 32 -22 33 -28 0 -6 0 -41 -1 -77 -1 -44 7 -96 24 -157
33 -114 35 -215 6 -252 -21 -27 -26 -55 -11 -65 6 -3 21 -29 35 -58 14 -28 36
-70 50 -92 l25 -40 1 30 c0 18 -9 41 -22 55 -41 45 -52 66 -15 28 32 -33 38
-35 46 -20 20 38 21 85 7 191 -21 149 -21 150 17 103 17 -23 34 -41 37 -41 3
-1 4 54 2 121 -2 123 -22 251 -67 443 -13 55 -33 148 -46 207 -12 58 -24 110
-28 115 -10 15 -132 113 -140 113 -4 0 -16 -9 -26 -20 -10 -11 -21 -20 -24
-20 -3 0 -6 24 -6 53 -1 52 -2 54 -78 131 -74 75 -80 79 -170 107 -50 16 -139
45 -196 64 -119 40 -149 41 -316 15z m395 -301 c69 -21 97 -34 82 -37 -26 -4
-212 58 -212 72 0 4 6 6 13 3 6 -2 59 -19 117 -38z m-111 -59 c-3 -96 -19
-100 -19 -6 0 47 4 76 11 76 6 0 9 -26 8 -70z m151 0 c-8 -5 -19 -10 -25 -10
-5 0 -3 5 5 10 8 5 20 10 25 10 6 0 3 -5 -5 -10z m-50 -20 c-8 -5 -22 -9 -30
-9 -10 0 -8 3 5 9 27 12 43 12 25 0z m-63 -27 c-9 -9 -20 -13 -24 -9 -4 4 -1
11 7 16 25 16 35 11 17 -7z m581 -293 c19 0 14 -21 -23 -85 l-35 -60 0 79 c0
76 1 78 23 72 12 -3 28 -6 35 -6z m-1637 -117 c13 -16 12 -17 -3 -4 -10 7 -18
15 -18 17 0 8 8 3 21 -13z m-6 -93 c-3 -5 -12 -10 -18 -10 -7 0 -6 4 3 10 19
12 23 12 15 0z m641 -189 l69 -68 -37 -74 c-33 -65 -37 -83 -38 -150 0 -72 -1
-76 -35 -109 -28 -28 -35 -41 -35 -73 0 -34 -15 -62 -96 -184 -53 -79 -99
-145 -103 -147 -3 -2 -5 80 -3 184 l3 188 -32 37 -32 37 30 62 31 63 69 6 c40
3 73 1 81 -5 8 -7 12 -7 12 1 0 7 18 10 47 8 l47 -2 27 55 c16 30 26 56 24 58
-2 2 -37 -19 -79 -47 -41 -28 -78 -51 -81 -51 -3 0 -5 15 -5 33 0 30 4 36 41
50 37 15 40 19 37 49 l-3 33 -67 3 c-69 3 -87 14 -45 26 20 7 20 8 -13 21 -19
7 -45 14 -57 14 -32 1 -28 15 10 34 19 9 58 16 98 16 l66 1 69 -69z m124 19
c0 -5 -2 -10 -4 -10 -3 0 -8 5 -11 10 -3 6 -1 10 4 10 6 0 11 -4 11 -10z m38
-435 c-3 -3 -9 2 -12 12 -6 14 -5 15 5 6 7 -7 10 -15 7 -18z m761 -452 c1 -18
-3 -33 -8 -33 -4 0 -8 33 -9 73 0 63 1 67 8 32 5 -22 9 -55 9 -72z m-621 -183
c3 -8 -5 -6 -21 6 -15 10 -27 23 -27 28 0 12 43 -18 48 -34z m-4 -65 c-7 -17
-24 -18 -104 -7 l-55 7 50 6 c96 11 115 10 109 -6z"/>
<path d="M990 1181 c0 -5 5 -13 10 -16 6 -3 10 -2 10 4 0 5 -4 13 -10 16 -5 3
-10 2 -10 -4z"/>
<path d="M809 1158 c-17 -15 -52 -68 -47 -72 2 -2 18 17 35 40 34 46 36 52 12
32z"/>
<path d="M900 1961 c0 -8 71 -41 118 -56 18 -5 21 -12 17 -28 -5 -17 -4 -19 4
-7 19 28 11 36 -64 67 -41 18 -75 28 -75 24z"/>
<path d="M788 1913 c7 -3 16 -2 19 1 4 3 -2 6 -13 5 -11 0 -14 -3 -6 -6z"/>
<path d="M360 1870 c0 -6 7 -10 15 -10 8 0 15 2 15 4 0 2 -7 6 -15 10 -8 3
-15 1 -15 -4z"/>
<path d="M996 1805 c-9 -26 -7 -32 5 -12 6 10 9 21 6 23 -2 3 -7 -2 -11 -11z"/>
<path d="M976 1755 c-9 -26 -7 -32 5 -12 6 10 9 21 6 23 -2 3 -7 -2 -11 -11z"/>
<path d="M1503 1656 c-85 -29 -140 -57 -83 -43 14 4 45 7 70 7 36 0 51 6 76
29 l32 30 23 -25 c12 -13 27 -24 33 -24 5 0 -3 14 -19 30 -16 17 -31 29 -34
29 -3 -1 -47 -15 -98 -33z"/>
<path d="M1776 1616 c-3 -13 -9 -31 -12 -39 -5 -13 3 -15 44 -14 55 2 56 9 6
51 l-32 26 -6 -24z"/>
<path d="M1610 1585 l0 -35 67 0 67 0 -34 35 c-25 26 -42 35 -67 35 -31 0 -33
-2 -33 -35z"/>
<path d="M1518 1563 c12 -2 32 -2 45 0 12 2 2 4 -23 4 -25 0 -35 -2 -22 -4z"/>
<path d="M1519 1444 l-24 -26 25 7 c22 5 27 2 38 -29 12 -34 16 -36 57 -36 30
0 45 5 49 16 11 27 7 32 -39 49 -25 10 -50 24 -56 31 -16 19 -22 18 -50 -12z"/>
<path d="M1650 1463 c0 -5 5 -15 10 -23 8 -12 10 -11 10 8 0 12 -4 22 -10 22
-5 0 -10 -3 -10 -7z"/>
<path d="M1424 665 c-18 -14 -18 -14 11 -14 17 0 24 3 17 6 -6 2 -10 9 -6 14
8 13 1 11 -22 -6z"/>
<path d="M1156 570 c26 -33 49 -58 52 -56 5 6 -80 115 -91 115 -5 1 13 -26 39
-59z"/>
</g>
</svg>
